<mxfile host="app.diagrams.net" agent="Mozilla/5.0 (Windows NT 10.0; Win64; x64) AppleWebKit/537.36 (KHTML, like Gecko) Chrome/135.0.0.0 Safari/537.36" version="26.2.13">
  <diagram name="第 1 页" id="zZpyx9L98rcn8zBvg-Vx">
    <mxGraphModel dx="1871" dy="1800" grid="1" gridSize="10" guides="1" tooltips="1" connect="1" arrows="1" fold="1" page="1" pageScale="1" pageWidth="827" pageHeight="1169" math="0" shadow="0">
      <root>
        <mxCell id="0" />
        <mxCell id="1" parent="0" />
        <mxCell id="JJdDaI7TqnDg2xv0rVeK-1" value="" style="rounded=1;whiteSpace=wrap;html=1;sketch=1;jiggle=2;curveFitting=1;strokeColor=default;align=center;verticalAlign=middle;fontFamily=Helvetica;fontSize=12;fontColor=default;fillColor=default;" vertex="1" parent="1">
          <mxGeometry x="1069" y="-1082" width="249" height="226" as="geometry" />
        </mxCell>
        <mxCell id="JJdDaI7TqnDg2xv0rVeK-2" value="&lt;p style=&quot;margin:0px;margin-top:4px;text-align:center;&quot;&gt;&lt;i&gt;&amp;lt;&amp;lt;Interface&amp;gt;&amp;gt;&lt;/i&gt;&lt;br&gt;&lt;b&gt;AstraVision&lt;/b&gt;&lt;/p&gt;&lt;hr size=&quot;1&quot; style=&quot;border-style:solid;&quot;&gt;&lt;p style=&quot;margin:0px;margin-left:4px;&quot;&gt;+ method(Type): Type&lt;br&gt;&lt;/p&gt;&lt;p style=&quot;margin:0px;margin-left:4px;&quot;&gt;&lt;br&gt;&lt;/p&gt;" style="verticalAlign=top;align=left;overflow=fill;html=1;whiteSpace=wrap;fillColor=#dae8fc;gradientColor=#7ea6e0;strokeColor=#6c8ebf;rounded=0;" vertex="1" parent="1">
          <mxGeometry x="690" y="10" width="190" height="92" as="geometry" />
        </mxCell>
        <mxCell id="JJdDaI7TqnDg2xv0rVeK-3" value="&lt;p style=&quot;margin:0px;margin-top:4px;text-align:center;&quot;&gt;&lt;b style=&quot;background-color: initial;&quot;&gt;Eon&lt;/b&gt;&lt;b style=&quot;background-color: initial;&quot;&gt;Vision&lt;/b&gt;&lt;b style=&quot;background-color: initial;&quot;&gt;Gate&lt;/b&gt;&lt;/p&gt;&lt;hr size=&quot;1&quot; style=&quot;border-style:solid;&quot;&gt;&lt;p style=&quot;margin:0px;margin-left:4px;&quot;&gt;+ args:&amp;nbsp;Collection&amp;lt;AstraVision&amp;gt;&lt;/p&gt;&lt;hr size=&quot;1&quot; style=&quot;border-style:solid;&quot;&gt;&lt;p style=&quot;margin:0px;margin-left:4px;&quot;&gt;+ addVisons(): Void&lt;/p&gt;&lt;p style=&quot;margin:0px;margin-left:4px;&quot;&gt;+ method(&lt;span style=&quot;background-color: initial;&quot;&gt;Type&lt;/span&gt;&lt;span style=&quot;background-color: initial;&quot;&gt;)：&lt;/span&gt;&lt;span style=&quot;background-color: initial;&quot;&gt;Type&lt;/span&gt;&lt;/p&gt;" style="verticalAlign=top;align=left;overflow=fill;html=1;whiteSpace=wrap;fillColor=#f5f5f5;rounded=0;strokeColor=#666666;gradientColor=#b3b3b3;" vertex="1" parent="1">
          <mxGeometry x="350" y="10" width="230" height="90" as="geometry" />
        </mxCell>
        <mxCell id="JJdDaI7TqnDg2xv0rVeK-4" value="&lt;p style=&quot;text-align: center; margin: 4px 0px 0px;&quot;&gt;&lt;span style=&quot;background-color: initial; text-align: left;&quot;&gt;&lt;b&gt;AbsPortal&lt;/b&gt;&lt;/span&gt;&lt;b style=&quot;background-color: initial;&quot;&gt;Gate&lt;/b&gt;&lt;/p&gt;&lt;hr size=&quot;1&quot; style=&quot;border-style:solid;&quot;&gt;&lt;p style=&quot;margin:0px;margin-left:4px;&quot;&gt;+ rootView: View&lt;/p&gt;&lt;p style=&quot;margin:0px;margin-left:4px;&quot;&gt;+ args: Collection&amp;lt;AstraPortal&amp;gt;&lt;/p&gt;&lt;hr size=&quot;1&quot; style=&quot;border-style:solid;&quot;&gt;&lt;p style=&quot;margin:0px;margin-left:4px;&quot;&gt;+ addPortals(): Void&lt;/p&gt;&lt;p style=&quot;margin:0px;margin-left:4px;&quot;&gt;+ onBridgeEvent(): Void&lt;/p&gt;&lt;p style=&quot;margin:0px;margin-left:4px;&quot;&gt;&lt;br&gt;&lt;/p&gt;&lt;p style=&quot;margin:0px;margin-left:4px;&quot;&gt;&lt;br&gt;&lt;/p&gt;" style="verticalAlign=top;align=left;overflow=fill;html=1;whiteSpace=wrap;rounded=0;fillColor=#fff2cc;gradientColor=#ffd966;strokeColor=#d6b656;" vertex="1" parent="1">
          <mxGeometry x="981" y="10" width="190" height="120" as="geometry" />
        </mxCell>
        <mxCell id="JJdDaI7TqnDg2xv0rVeK-5" value="&lt;p style=&quot;margin:0px;margin-top:4px;text-align:center;&quot;&gt;&lt;i&gt;&amp;lt;&amp;lt;Interface&amp;gt;&amp;gt;&lt;/i&gt;&lt;br&gt;&lt;b&gt;Astra&lt;/b&gt;&lt;b style=&quot;background-color: initial; text-align: left;&quot;&gt;Portal&lt;/b&gt;&lt;/p&gt;&lt;hr size=&quot;1&quot; style=&quot;border-style:solid;&quot;&gt;&lt;p style=&quot;margin:0px;margin-left:4px;&quot;&gt;+ setLogicData(): void&lt;br&gt;&lt;/p&gt;&lt;p style=&quot;margin:0px;margin-left:4px;&quot;&gt;+ show(): void&lt;/p&gt;&lt;p style=&quot;margin:0px;margin-left:4px;&quot;&gt;+ hide(): void&lt;/p&gt;&lt;p style=&quot;margin:0px;margin-left:4px;&quot;&gt;+ remove(): void&lt;/p&gt;&lt;p style=&quot;margin:0px;margin-left:4px;&quot;&gt;&lt;br&gt;&lt;/p&gt;" style="verticalAlign=top;align=left;overflow=fill;html=1;whiteSpace=wrap;fillColor=#dae8fc;gradientColor=#7ea6e0;strokeColor=#6c8ebf;rounded=0;" vertex="1" parent="1">
          <mxGeometry x="981" y="200" width="190" height="110" as="geometry" />
        </mxCell>
        <mxCell id="JJdDaI7TqnDg2xv0rVeK-6" value="" style="endArrow=open;html=1;endSize=12;startArrow=diamondThin;startSize=14;startFill=0;rounded=0;exitX=1;exitY=0.5;exitDx=0;exitDy=0;entryX=0;entryY=0.5;entryDx=0;entryDy=0;" edge="1" parent="1" source="JJdDaI7TqnDg2xv0rVeK-3" target="JJdDaI7TqnDg2xv0rVeK-2">
          <mxGeometry relative="1" as="geometry">
            <mxPoint x="430" y="370" as="sourcePoint" />
            <mxPoint x="590" y="370" as="targetPoint" />
          </mxGeometry>
        </mxCell>
        <mxCell id="JJdDaI7TqnDg2xv0rVeK-7" value="1" style="edgeLabel;resizable=0;html=1;align=left;verticalAlign=top;rounded=0;" connectable="0" vertex="1" parent="JJdDaI7TqnDg2xv0rVeK-6">
          <mxGeometry x="-1" relative="1" as="geometry">
            <mxPoint x="8" as="offset" />
          </mxGeometry>
        </mxCell>
        <mxCell id="JJdDaI7TqnDg2xv0rVeK-8" value="0..n" style="edgeLabel;resizable=0;html=1;align=right;verticalAlign=top;rounded=0;" connectable="0" vertex="1" parent="JJdDaI7TqnDg2xv0rVeK-6">
          <mxGeometry x="1" relative="1" as="geometry">
            <mxPoint x="-11" as="offset" />
          </mxGeometry>
        </mxCell>
        <mxCell id="JJdDaI7TqnDg2xv0rVeK-9" value="" style="endArrow=open;html=1;endSize=12;startArrow=diamondThin;startSize=14;startFill=0;rounded=0;entryX=0.5;entryY=0;entryDx=0;entryDy=0;" edge="1" parent="1" source="JJdDaI7TqnDg2xv0rVeK-4" target="JJdDaI7TqnDg2xv0rVeK-5">
          <mxGeometry relative="1" as="geometry">
            <mxPoint x="1088" y="200" as="sourcePoint" />
            <mxPoint x="1228" y="200" as="targetPoint" />
          </mxGeometry>
        </mxCell>
        <mxCell id="JJdDaI7TqnDg2xv0rVeK-10" value="1" style="edgeLabel;resizable=0;html=1;align=left;verticalAlign=top;rounded=0;" connectable="0" vertex="1" parent="JJdDaI7TqnDg2xv0rVeK-9">
          <mxGeometry x="-1" relative="1" as="geometry">
            <mxPoint x="-16" as="offset" />
          </mxGeometry>
        </mxCell>
        <mxCell id="JJdDaI7TqnDg2xv0rVeK-11" value="0..n" style="edgeLabel;resizable=0;html=1;align=right;verticalAlign=top;rounded=0;" connectable="0" vertex="1" parent="JJdDaI7TqnDg2xv0rVeK-9">
          <mxGeometry x="1" relative="1" as="geometry">
            <mxPoint x="-6" y="-30" as="offset" />
          </mxGeometry>
        </mxCell>
        <mxCell id="JJdDaI7TqnDg2xv0rVeK-12" value="" style="endArrow=open;endFill=1;endSize=12;html=1;rounded=0;exitX=1;exitY=0.5;exitDx=0;exitDy=0;entryX=0;entryY=0.5;entryDx=0;entryDy=0;edgeStyle=orthogonalEdgeStyle;" edge="1" parent="1" source="JJdDaI7TqnDg2xv0rVeK-36" target="JJdDaI7TqnDg2xv0rVeK-4">
          <mxGeometry width="160" relative="1" as="geometry">
            <mxPoint x="930" y="30" as="sourcePoint" />
            <mxPoint x="1090" y="30" as="targetPoint" />
          </mxGeometry>
        </mxCell>
        <mxCell id="JJdDaI7TqnDg2xv0rVeK-13" value="EchoStream" style="swimlane;fontStyle=1;align=center;verticalAlign=top;childLayout=stackLayout;horizontal=1;startSize=26;horizontalStack=0;resizeParent=1;resizeParentMax=0;resizeLast=0;collapsible=1;marginBottom=0;whiteSpace=wrap;html=1;rounded=0;" vertex="1" parent="1">
          <mxGeometry x="1280" y="-180" width="160" height="86" as="geometry" />
        </mxCell>
        <mxCell id="JJdDaI7TqnDg2xv0rVeK-14" value="+ field: type" style="text;strokeColor=none;fillColor=none;align=left;verticalAlign=top;spacingLeft=4;spacingRight=4;overflow=hidden;rotatable=0;points=[[0,0.5],[1,0.5]];portConstraint=eastwest;whiteSpace=wrap;html=1;rounded=0;" vertex="1" parent="JJdDaI7TqnDg2xv0rVeK-13">
          <mxGeometry y="26" width="160" height="26" as="geometry" />
        </mxCell>
        <mxCell id="JJdDaI7TqnDg2xv0rVeK-15" value="" style="line;strokeWidth=1;fillColor=none;align=left;verticalAlign=middle;spacingTop=-1;spacingLeft=3;spacingRight=3;rotatable=0;labelPosition=right;points=[];portConstraint=eastwest;strokeColor=inherit;rounded=0;" vertex="1" parent="JJdDaI7TqnDg2xv0rVeK-13">
          <mxGeometry y="52" width="160" height="8" as="geometry" />
        </mxCell>
        <mxCell id="JJdDaI7TqnDg2xv0rVeK-16" value="+ method(type): type" style="text;strokeColor=none;fillColor=none;align=left;verticalAlign=top;spacingLeft=4;spacingRight=4;overflow=hidden;rotatable=0;points=[[0,0.5],[1,0.5]];portConstraint=eastwest;whiteSpace=wrap;html=1;rounded=0;" vertex="1" parent="JJdDaI7TqnDg2xv0rVeK-13">
          <mxGeometry y="60" width="160" height="26" as="geometry" />
        </mxCell>
        <mxCell id="JJdDaI7TqnDg2xv0rVeK-17" value="XenoBridge" style="swimlane;fontStyle=1;align=center;verticalAlign=top;childLayout=stackLayout;horizontal=1;startSize=26;horizontalStack=0;resizeParent=1;resizeParentMax=0;resizeLast=0;collapsible=1;marginBottom=0;whiteSpace=wrap;html=1;rounded=0;" vertex="1" parent="1">
          <mxGeometry x="1640" y="30" width="160" height="86" as="geometry" />
        </mxCell>
        <mxCell id="JJdDaI7TqnDg2xv0rVeK-18" value="+ field: type" style="text;strokeColor=none;fillColor=none;align=left;verticalAlign=top;spacingLeft=4;spacingRight=4;overflow=hidden;rotatable=0;points=[[0,0.5],[1,0.5]];portConstraint=eastwest;whiteSpace=wrap;html=1;rounded=0;" vertex="1" parent="JJdDaI7TqnDg2xv0rVeK-17">
          <mxGeometry y="26" width="160" height="26" as="geometry" />
        </mxCell>
        <mxCell id="JJdDaI7TqnDg2xv0rVeK-19" value="" style="line;strokeWidth=1;fillColor=none;align=left;verticalAlign=middle;spacingTop=-1;spacingLeft=3;spacingRight=3;rotatable=0;labelPosition=right;points=[];portConstraint=eastwest;strokeColor=inherit;rounded=0;" vertex="1" parent="JJdDaI7TqnDg2xv0rVeK-17">
          <mxGeometry y="52" width="160" height="8" as="geometry" />
        </mxCell>
        <mxCell id="JJdDaI7TqnDg2xv0rVeK-20" value="+ method(type): type" style="text;strokeColor=none;fillColor=none;align=left;verticalAlign=top;spacingLeft=4;spacingRight=4;overflow=hidden;rotatable=0;points=[[0,0.5],[1,0.5]];portConstraint=eastwest;whiteSpace=wrap;html=1;rounded=0;" vertex="1" parent="JJdDaI7TqnDg2xv0rVeK-17">
          <mxGeometry y="60" width="160" height="26" as="geometry" />
        </mxCell>
        <mxCell id="JJdDaI7TqnDg2xv0rVeK-21" value="«interface»&lt;br&gt;&lt;b&gt;MessageBus&lt;/b&gt;" style="html=1;whiteSpace=wrap;fillColor=#dae8fc;gradientColor=#7ea6e0;strokeColor=#6c8ebf;rounded=0;" vertex="1" parent="1">
          <mxGeometry x="1665" y="-150" width="110" height="50" as="geometry" />
        </mxCell>
        <mxCell id="JJdDaI7TqnDg2xv0rVeK-22" value="" style="endArrow=block;endSize=16;endFill=0;html=1;rounded=0;entryX=0;entryY=0.5;entryDx=0;entryDy=0;dashed=1;exitX=1;exitY=0.5;exitDx=0;exitDy=0;" edge="1" parent="1" source="JJdDaI7TqnDg2xv0rVeK-14" target="JJdDaI7TqnDg2xv0rVeK-21">
          <mxGeometry width="160" relative="1" as="geometry">
            <mxPoint x="700" y="242" as="sourcePoint" />
            <mxPoint x="860" y="242" as="targetPoint" />
          </mxGeometry>
        </mxCell>
        <mxCell id="JJdDaI7TqnDg2xv0rVeK-23" value="" style="endArrow=block;endSize=16;endFill=0;html=1;rounded=0;exitX=0.5;exitY=0;exitDx=0;exitDy=0;dashed=1;entryX=0.5;entryY=1;entryDx=0;entryDy=0;" edge="1" parent="1" source="JJdDaI7TqnDg2xv0rVeK-17" target="JJdDaI7TqnDg2xv0rVeK-21">
          <mxGeometry width="160" relative="1" as="geometry">
            <mxPoint x="760" y="-238" as="sourcePoint" />
            <mxPoint x="920" y="-328" as="targetPoint" />
          </mxGeometry>
        </mxCell>
        <mxCell id="JJdDaI7TqnDg2xv0rVeK-24" value="LogicDrive" style="swimlane;fontStyle=1;align=center;verticalAlign=top;childLayout=stackLayout;horizontal=1;startSize=26;horizontalStack=0;resizeParent=1;resizeParentMax=0;resizeLast=0;collapsible=1;marginBottom=0;whiteSpace=wrap;html=1;rounded=0;" vertex="1" parent="1">
          <mxGeometry x="1640" y="212" width="160" height="86" as="geometry" />
        </mxCell>
        <mxCell id="JJdDaI7TqnDg2xv0rVeK-25" value="+ field: type" style="text;strokeColor=none;fillColor=none;align=left;verticalAlign=top;spacingLeft=4;spacingRight=4;overflow=hidden;rotatable=0;points=[[0,0.5],[1,0.5]];portConstraint=eastwest;whiteSpace=wrap;html=1;rounded=0;" vertex="1" parent="JJdDaI7TqnDg2xv0rVeK-24">
          <mxGeometry y="26" width="160" height="26" as="geometry" />
        </mxCell>
        <mxCell id="JJdDaI7TqnDg2xv0rVeK-26" value="" style="line;strokeWidth=1;fillColor=none;align=left;verticalAlign=middle;spacingTop=-1;spacingLeft=3;spacingRight=3;rotatable=0;labelPosition=right;points=[];portConstraint=eastwest;strokeColor=inherit;rounded=0;" vertex="1" parent="JJdDaI7TqnDg2xv0rVeK-24">
          <mxGeometry y="52" width="160" height="8" as="geometry" />
        </mxCell>
        <mxCell id="JJdDaI7TqnDg2xv0rVeK-27" value="+ method(type): type" style="text;strokeColor=none;fillColor=none;align=left;verticalAlign=top;spacingLeft=4;spacingRight=4;overflow=hidden;rotatable=0;points=[[0,0.5],[1,0.5]];portConstraint=eastwest;whiteSpace=wrap;html=1;rounded=0;" vertex="1" parent="JJdDaI7TqnDg2xv0rVeK-24">
          <mxGeometry y="60" width="160" height="26" as="geometry" />
        </mxCell>
        <mxCell id="JJdDaI7TqnDg2xv0rVeK-28" value="" style="endArrow=open;endFill=1;endSize=12;html=1;rounded=0;exitX=0.5;exitY=0;exitDx=0;exitDy=0;" edge="1" parent="1" source="JJdDaI7TqnDg2xv0rVeK-24" target="JJdDaI7TqnDg2xv0rVeK-20">
          <mxGeometry width="160" relative="1" as="geometry">
            <mxPoint x="1850" y="86" as="sourcePoint" />
            <mxPoint x="2010" y="86" as="targetPoint" />
          </mxGeometry>
        </mxCell>
        <mxCell id="JJdDaI7TqnDg2xv0rVeK-29" value="&lt;b style=&quot;background-color: initial; font-size: 14px;&quot;&gt;Eon&lt;/b&gt;&lt;b style=&quot;background-color: initial; font-size: 14px;&quot;&gt;Vision&lt;/b&gt;&lt;b style=&quot;background-color: initial; font-size: 14px;&quot;&gt;Gate：&lt;/b&gt;&lt;span style=&quot;background-color: initial; font-size: 14px;&quot;&gt;&lt;i&gt;视窗管理器&lt;/i&gt;&lt;/span&gt;&lt;div style=&quot;font-size: 14px;&quot;&gt;&lt;b style=&quot;font-size: 14px;&quot;&gt;AstraVision：&amp;nbsp; &amp;nbsp; &amp;nbsp;&lt;/b&gt;&lt;span style=&quot;font-size: 14px;&quot;&gt;&lt;i&gt;视窗抽象&lt;/i&gt;&lt;/span&gt;&lt;b style=&quot;background-color: initial; font-size: 14px;&quot;&gt;&lt;br style=&quot;font-size: 14px;&quot;&gt;&lt;/b&gt;&lt;/div&gt;&lt;div style=&quot;font-size: 14px;&quot;&gt;&lt;span style=&quot;font-size: 14px; background-color: initial;&quot;&gt;&lt;b style=&quot;font-size: 14px;&quot;&gt;AbsPortal&lt;/b&gt;&lt;/span&gt;&lt;b style=&quot;font-size: 14px; background-color: initial;&quot;&gt;Gate：&lt;/b&gt;&lt;span style=&quot;font-size: 14px; background-color: initial;&quot;&gt;&lt;i&gt;视图窗口管理器&lt;/i&gt;&lt;/span&gt;&lt;b style=&quot;font-size: 14px;&quot;&gt;&lt;br style=&quot;font-size: 14px;&quot;&gt;&lt;/b&gt;&lt;/div&gt;&lt;div style=&quot;font-size: 14px;&quot;&gt;&lt;b style=&quot;font-size: 14px;&quot;&gt;Astra&lt;/b&gt;&lt;b style=&quot;font-size: 14px; background-color: initial;&quot;&gt;Portal：&lt;/b&gt;&lt;span style=&quot;background-color: initial;&quot;&gt;&lt;i&gt;视图抽象&lt;/i&gt;&lt;/span&gt;&lt;b style=&quot;font-size: 14px;&quot;&gt;&lt;br style=&quot;font-size: 14px;&quot;&gt;&lt;/b&gt;&lt;/div&gt;&lt;div style=&quot;font-size: 14px;&quot;&gt;&lt;span style=&quot;font-size: 14px; font-weight: 700;&quot;&gt;EchoStream：&lt;/span&gt;&lt;span style=&quot;font-size: 14px;&quot;&gt;&lt;i&gt;事件响应流&lt;/i&gt;&lt;/span&gt;&lt;b style=&quot;font-size: 14px; background-color: initial;&quot;&gt;&lt;br style=&quot;font-size: 14px;&quot;&gt;&lt;/b&gt;&lt;/div&gt;&lt;div style=&quot;font-size: 14px;&quot;&gt;&lt;span style=&quot;font-size: 14px; font-weight: 700;&quot;&gt;XenoBridge：&lt;/span&gt;&lt;span style=&quot;background-color: initial;&quot;&gt;&lt;i&gt;业务与视图数据流&lt;/i&gt;&lt;/span&gt;&lt;span style=&quot;font-size: 14px; font-weight: 700;&quot;&gt;&lt;br style=&quot;font-size: 14px;&quot;&gt;&lt;/span&gt;&lt;/div&gt;&lt;div style=&quot;font-size: 14px;&quot;&gt;&lt;span style=&quot;font-size: 14px; font-weight: 700;&quot;&gt;LogicDrive：&lt;/span&gt;&lt;span style=&quot;font-size: 14px;&quot;&gt;&lt;i&gt;业务数据驱动器&lt;/i&gt;&lt;/span&gt;&lt;span style=&quot;font-size: 14px; font-weight: 700;&quot;&gt;&lt;br style=&quot;font-size: 14px;&quot;&gt;&lt;/span&gt;&lt;/div&gt;" style="rounded=0;whiteSpace=wrap;html=1;fontSize=14;align=left;verticalAlign=top;spacingTop=2;spacingLeft=2;" vertex="1" parent="1">
          <mxGeometry x="1590" y="360" width="240" height="290" as="geometry" />
        </mxCell>
        <mxCell id="JJdDaI7TqnDg2xv0rVeK-30" value="" style="endArrow=open;endFill=1;endSize=12;html=1;rounded=0;dashed=1;entryX=0;entryY=0.5;entryDx=0;entryDy=0;exitX=0.75;exitY=0;exitDx=0;exitDy=0;" edge="1" parent="1" source="JJdDaI7TqnDg2xv0rVeK-31" target="JJdDaI7TqnDg2xv0rVeK-18">
          <mxGeometry width="160" relative="1" as="geometry">
            <mxPoint x="1290" y="130" as="sourcePoint" />
            <mxPoint x="1270" y="-14" as="targetPoint" />
          </mxGeometry>
        </mxCell>
        <mxCell id="JJdDaI7TqnDg2xv0rVeK-31" value="&lt;p style=&quot;text-align: center; margin: 4px 0px 0px;&quot;&gt;&lt;span style=&quot;background-color: initial; text-align: left;&quot;&gt;&lt;b&gt;AbsPortal&lt;/b&gt;&lt;/span&gt;&lt;/p&gt;&lt;hr size=&quot;1&quot; style=&quot;border-style:solid;&quot;&gt;&lt;p style=&quot;margin:0px;margin-left:4px;&quot;&gt;+ viewForge: IViewForge&lt;/p&gt;&lt;hr size=&quot;1&quot; style=&quot;border-style:solid;&quot;&gt;&lt;p style=&quot;margin:0px;margin-left:4px;&quot;&gt;+ creatViewForge&lt;span style=&quot;background-color: initial;&quot;&gt;(): Type&lt;/span&gt;&lt;/p&gt;&lt;p style=&quot;margin:0px;margin-left:4px;&quot;&gt;&lt;br&gt;&lt;/p&gt;" style="verticalAlign=top;align=left;overflow=fill;html=1;whiteSpace=wrap;rounded=0;fillColor=#fff2cc;gradientColor=#ffd966;strokeColor=#d6b656;" vertex="1" parent="1">
          <mxGeometry x="981" y="386" width="190" height="94" as="geometry" />
        </mxCell>
        <mxCell id="JJdDaI7TqnDg2xv0rVeK-32" value="" style="endArrow=block;endSize=16;endFill=0;html=1;rounded=0;entryX=0.5;entryY=1;entryDx=0;entryDy=0;exitX=0.5;exitY=0;exitDx=0;exitDy=0;dashed=1;" edge="1" parent="1" source="JJdDaI7TqnDg2xv0rVeK-31" target="JJdDaI7TqnDg2xv0rVeK-5">
          <mxGeometry width="160" relative="1" as="geometry">
            <mxPoint x="1360" y="370" as="sourcePoint" />
            <mxPoint x="1360" y="320" as="targetPoint" />
          </mxGeometry>
        </mxCell>
        <mxCell id="JJdDaI7TqnDg2xv0rVeK-33" value="&lt;p style=&quot;margin:0px;margin-top:4px;text-align:center;&quot;&gt;&lt;i&gt;&amp;lt;&amp;lt;Interface&amp;gt;&amp;gt;&lt;/i&gt;&lt;br&gt;&lt;b&gt;IViewForge&lt;/b&gt;&lt;/p&gt;&lt;hr size=&quot;1&quot; style=&quot;border-style:solid;&quot;&gt;&lt;p style=&quot;margin:0px;margin-left:4px;&quot;&gt;+ getVeiw(): void&lt;br&gt;+ createView(): void&lt;/p&gt;&lt;p style=&quot;margin:0px;margin-left:4px;&quot;&gt;+ destoryView(): void&lt;/p&gt;&lt;p style=&quot;margin:0px;margin-left:4px;&quot;&gt;&lt;br&gt;&lt;/p&gt;" style="verticalAlign=top;align=left;overflow=fill;html=1;whiteSpace=wrap;fillColor=#dae8fc;gradientColor=#7ea6e0;strokeColor=#6c8ebf;rounded=0;" vertex="1" parent="1">
          <mxGeometry x="1280" y="373" width="190" height="120" as="geometry" />
        </mxCell>
        <mxCell id="JJdDaI7TqnDg2xv0rVeK-34" value="" style="endArrow=open;endFill=1;endSize=12;html=1;rounded=0;exitX=1;exitY=0.5;exitDx=0;exitDy=0;" edge="1" parent="1" source="JJdDaI7TqnDg2xv0rVeK-31" target="JJdDaI7TqnDg2xv0rVeK-33">
          <mxGeometry width="160" relative="1" as="geometry">
            <mxPoint x="890" y="66" as="sourcePoint" />
            <mxPoint x="991" y="67" as="targetPoint" />
          </mxGeometry>
        </mxCell>
        <mxCell id="JJdDaI7TqnDg2xv0rVeK-35" value="??" style="edgeLabel;html=1;align=center;verticalAlign=middle;resizable=0;points=[];" vertex="1" connectable="0" parent="JJdDaI7TqnDg2xv0rVeK-34">
          <mxGeometry x="0.1989" y="-1" relative="1" as="geometry">
            <mxPoint x="-18" y="12" as="offset" />
          </mxGeometry>
        </mxCell>
        <mxCell id="JJdDaI7TqnDg2xv0rVeK-36" value="&lt;p style=&quot;text-align: center; margin: 4px 0px 0px;&quot;&gt;&lt;span style=&quot;background-color: initial; text-align: left;&quot;&gt;&lt;b&gt;AbsVision&lt;/b&gt;&lt;/span&gt;&lt;/p&gt;&lt;hr size=&quot;1&quot; style=&quot;border-style:solid;&quot;&gt;&lt;p style=&quot;margin:0px;margin-left:4px;&quot;&gt;+ flex: IWindowFlex&lt;/p&gt;&lt;p style=&quot;margin:0px;margin-left:4px;&quot;&gt;+ protalGate: AbsProtalGate&lt;/p&gt;&lt;hr size=&quot;1&quot; style=&quot;border-style:solid;&quot;&gt;&lt;p style=&quot;margin:0px;margin-left:4px;&quot;&gt;+ createPortalGate(): Void&lt;/p&gt;&lt;p style=&quot;margin:0px;margin-left:4px;&quot;&gt;+ buildFlex&lt;span style=&quot;background-color: initial;&quot;&gt;(): Void&lt;/span&gt;&lt;/p&gt;&lt;p style=&quot;margin:0px;margin-left:4px;&quot;&gt;&lt;br&gt;&lt;/p&gt;" style="verticalAlign=top;align=left;overflow=fill;html=1;whiteSpace=wrap;rounded=0;fillColor=#fff2cc;gradientColor=#ffd966;strokeColor=#d6b656;" vertex="1" parent="1">
          <mxGeometry x="690" y="200" width="190" height="130" as="geometry" />
        </mxCell>
        <mxCell id="JJdDaI7TqnDg2xv0rVeK-37" value="" style="endArrow=block;endSize=16;endFill=0;html=1;rounded=0;entryX=0.5;entryY=1;entryDx=0;entryDy=0;exitX=0.5;exitY=0;exitDx=0;exitDy=0;dashed=1;" edge="1" parent="1" source="JJdDaI7TqnDg2xv0rVeK-36" target="JJdDaI7TqnDg2xv0rVeK-2">
          <mxGeometry width="160" relative="1" as="geometry">
            <mxPoint x="1086" y="370" as="sourcePoint" />
            <mxPoint x="1086" y="304" as="targetPoint" />
          </mxGeometry>
        </mxCell>
        <mxCell id="JJdDaI7TqnDg2xv0rVeK-38" value=":EsonVsionGate" style="shape=umlLifeline;perimeter=lifelinePerimeter;whiteSpace=wrap;html=1;container=1;dropTarget=0;collapsible=0;recursiveResize=0;outlineConnect=0;portConstraint=eastwest;newEdgeStyle={&quot;curved&quot;:0,&quot;rounded&quot;:0};rounded=0;" vertex="1" parent="1">
          <mxGeometry x="2360" y="-63" width="100" height="300" as="geometry" />
        </mxCell>
        <mxCell id="JJdDaI7TqnDg2xv0rVeK-39" value=":Object" style="shape=umlLifeline;perimeter=lifelinePerimeter;whiteSpace=wrap;html=1;container=1;dropTarget=0;collapsible=0;recursiveResize=0;outlineConnect=0;portConstraint=eastwest;newEdgeStyle={&quot;curved&quot;:0,&quot;rounded&quot;:0};rounded=0;" vertex="1" parent="1">
          <mxGeometry x="2570" y="-63" width="100" height="300" as="geometry" />
        </mxCell>
        <mxCell id="JJdDaI7TqnDg2xv0rVeK-40" value="&lt;p style=&quot;margin:0px;margin-top:4px;text-align:center;&quot;&gt;&lt;b&gt;AbsViewForge&lt;/b&gt;&lt;/p&gt;&lt;hr size=&quot;1&quot; style=&quot;border-style:solid;&quot;&gt;&lt;p style=&quot;margin:0px;margin-left:4px;&quot;&gt;+ flex: IViewFlex&lt;/p&gt;&lt;hr size=&quot;1&quot; style=&quot;border-style:solid;&quot;&gt;&lt;p style=&quot;margin:0px;margin-left:4px;&quot;&gt;+ buildFlex(): Void&lt;/p&gt;" style="verticalAlign=top;align=left;overflow=fill;html=1;whiteSpace=wrap;rounded=0;fillColor=#fff2cc;gradientColor=#ffd966;strokeColor=#d6b656;" vertex="1" parent="1">
          <mxGeometry x="1295" y="590" width="160" height="90" as="geometry" />
        </mxCell>
        <mxCell id="JJdDaI7TqnDg2xv0rVeK-41" value="" style="endArrow=block;endSize=16;endFill=0;html=1;rounded=0;entryX=0.5;entryY=1;entryDx=0;entryDy=0;exitX=0.5;exitY=0;exitDx=0;exitDy=0;dashed=1;" edge="1" parent="1" source="JJdDaI7TqnDg2xv0rVeK-40" target="JJdDaI7TqnDg2xv0rVeK-33">
          <mxGeometry width="160" relative="1" as="geometry">
            <mxPoint x="1066" y="540" as="sourcePoint" />
            <mxPoint x="1066" y="474" as="targetPoint" />
          </mxGeometry>
        </mxCell>
        <mxCell id="JJdDaI7TqnDg2xv0rVeK-42" value="" style="endArrow=open;endFill=1;endSize=12;html=1;rounded=0;exitX=0.5;exitY=1;exitDx=0;exitDy=0;entryX=0.5;entryY=0;entryDx=0;entryDy=0;" edge="1" parent="1" source="JJdDaI7TqnDg2xv0rVeK-40" target="JJdDaI7TqnDg2xv0rVeK-43">
          <mxGeometry width="160" relative="1" as="geometry">
            <mxPoint x="1066" y="540" as="sourcePoint" />
            <mxPoint x="1365" y="706" as="targetPoint" />
          </mxGeometry>
        </mxCell>
        <mxCell id="JJdDaI7TqnDg2xv0rVeK-43" value="&lt;p style=&quot;margin:0px;margin-top:4px;text-align:center;&quot;&gt;&lt;i&gt;&amp;lt;&amp;lt;Interface&amp;gt;&amp;gt;&lt;/i&gt;&lt;br&gt;&lt;b&gt;IViewFlex&lt;/b&gt;&lt;br&gt;&lt;/p&gt;&lt;hr size=&quot;1&quot; style=&quot;border-style:solid;&quot;&gt;&lt;p style=&quot;margin:0px;margin-left:4px;&quot;&gt;&lt;span style=&quot;background-color: initial;&quot;&gt;+ getStyle(): Type&lt;/span&gt;&lt;/p&gt;&lt;p style=&quot;margin: 0px 0px 0px 4px;&quot;&gt;+ getContent(): Type&lt;/p&gt;&lt;p style=&quot;margin: 0px 0px 0px 4px;&quot;&gt;+ getDiffView(): View&lt;/p&gt;&lt;p style=&quot;margin: 0px 0px 0px 4px;&quot;&gt;&lt;br&gt;&lt;/p&gt;&lt;p style=&quot;margin:0px;margin-left:4px;&quot;&gt;&lt;br&gt;&lt;/p&gt;" style="verticalAlign=top;align=left;overflow=fill;html=1;whiteSpace=wrap;fillColor=#dae8fc;gradientColor=#7ea6e0;strokeColor=#6c8ebf;rounded=0;" vertex="1" parent="1">
          <mxGeometry x="1280" y="770" width="190" height="120" as="geometry" />
        </mxCell>
        <mxCell id="JJdDaI7TqnDg2xv0rVeK-44" value="&lt;p style=&quot;margin:0px;margin-top:4px;text-align:center;&quot;&gt;&lt;i&gt;&amp;lt;&amp;lt;Interface&amp;gt;&amp;gt;&lt;/i&gt;&lt;br&gt;&lt;b&gt;IWindowFlex&lt;/b&gt;&lt;br&gt;&lt;/p&gt;&lt;hr size=&quot;1&quot; style=&quot;border-style:solid;&quot;&gt;&lt;p style=&quot;margin:0px;margin-left:4px;&quot;&gt;&lt;span style=&quot;background-color: initial;&quot;&gt;+ getParams(): Type&lt;/span&gt;&lt;/p&gt;&lt;p style=&quot;margin: 0px 0px 0px 4px;&quot;&gt;+ getScope():&amp;nbsp;&lt;span style=&quot;background-color: initial;&quot;&gt;Type&lt;/span&gt;&lt;/p&gt;" style="verticalAlign=top;align=left;overflow=fill;html=1;whiteSpace=wrap;fillColor=#dae8fc;gradientColor=#7ea6e0;strokeColor=#6c8ebf;rounded=0;" vertex="1" parent="1">
          <mxGeometry x="690" y="386" width="190" height="94" as="geometry" />
        </mxCell>
        <mxCell id="JJdDaI7TqnDg2xv0rVeK-45" value="" style="endArrow=open;endFill=1;endSize=12;html=1;rounded=0;exitX=0.5;exitY=1;exitDx=0;exitDy=0;entryX=0.5;entryY=0;entryDx=0;entryDy=0;" edge="1" parent="1" source="JJdDaI7TqnDg2xv0rVeK-36" target="JJdDaI7TqnDg2xv0rVeK-44">
          <mxGeometry width="160" relative="1" as="geometry">
            <mxPoint x="1395" y="520" as="sourcePoint" />
            <mxPoint x="1395" y="595" as="targetPoint" />
          </mxGeometry>
        </mxCell>
        <mxCell id="JJdDaI7TqnDg2xv0rVeK-46" value="" style="endArrow=open;endFill=1;endSize=12;html=1;rounded=0;dashed=1;" edge="1" parent="1" source="JJdDaI7TqnDg2xv0rVeK-16" target="JJdDaI7TqnDg2xv0rVeK-31">
          <mxGeometry width="160" relative="1" as="geometry">
            <mxPoint x="1134" y="396" as="sourcePoint" />
            <mxPoint x="1650" y="79" as="targetPoint" />
          </mxGeometry>
        </mxCell>
        <mxCell id="JJdDaI7TqnDg2xv0rVeK-47" value="" style="endArrow=open;endFill=1;endSize=12;html=1;rounded=0;dashed=1;exitX=0.5;exitY=0;exitDx=0;exitDy=0;entryX=0;entryY=0.5;entryDx=0;entryDy=0;" edge="1" parent="1" source="JJdDaI7TqnDg2xv0rVeK-4" target="JJdDaI7TqnDg2xv0rVeK-14">
          <mxGeometry width="160" relative="1" as="geometry">
            <mxPoint x="1387" y="-64" as="sourcePoint" />
            <mxPoint x="1114" y="396" as="targetPoint" />
          </mxGeometry>
        </mxCell>
        <mxCell id="JJdDaI7TqnDg2xv0rVeK-48" value="UI" style="rounded=1;whiteSpace=wrap;html=1;sketch=1;curveFitting=1;jiggle=2;fontFamily=Comic Sans MS;fillColor=#dae8fc;strokeColor=#6c8ebf;" vertex="1" parent="1">
          <mxGeometry x="637" y="-1004" width="221" height="77" as="geometry" />
        </mxCell>
        <mxCell id="JJdDaI7TqnDg2xv0rVeK-49" value="Data" style="rounded=1;whiteSpace=wrap;html=1;sketch=1;curveFitting=1;jiggle=2;fillColor=#f5f5f5;fontColor=#333333;strokeColor=#666666;" vertex="1" parent="1">
          <mxGeometry x="636" y="-902" width="221" height="77" as="geometry" />
        </mxCell>
        <mxCell id="JJdDaI7TqnDg2xv0rVeK-50" value="Window" style="rounded=1;whiteSpace=wrap;html=1;sketch=1;curveFitting=1;jiggle=2;fontFamily=Comic Sans MS;fillColor=#dae8fc;strokeColor=#6c8ebf;" vertex="1" parent="1">
          <mxGeometry x="1082" y="-946" width="221" height="77" as="geometry" />
        </mxCell>
        <mxCell id="JJdDaI7TqnDg2xv0rVeK-51" value="Data" style="rounded=1;whiteSpace=wrap;html=1;sketch=1;curveFitting=1;jiggle=2;fillColor=#f5f5f5;fontColor=#333333;strokeColor=#666666;" vertex="1" parent="1">
          <mxGeometry x="1081" y="-844" width="221" height="77" as="geometry" />
        </mxCell>
        <mxCell id="JJdDaI7TqnDg2xv0rVeK-52" value="View" style="rounded=1;whiteSpace=wrap;html=1;sketch=1;curveFitting=1;jiggle=2;fontFamily=Comic Sans MS;fillColor=#dae8fc;strokeColor=#6c8ebf;" vertex="1" parent="1">
          <mxGeometry x="1084" y="-1045" width="221" height="77" as="geometry" />
        </mxCell>
        <mxCell id="JJdDaI7TqnDg2xv0rVeK-53" value="UI" style="text;html=1;align=center;verticalAlign=middle;whiteSpace=wrap;rounded=0;fontFamily=Comic Sans MS;fontSize=12;fontColor=default;" vertex="1" parent="1">
          <mxGeometry x="1165" y="-1075" width="60" height="30" as="geometry" />
        </mxCell>
        <mxCell id="JJdDaI7TqnDg2xv0rVeK-54" style="edgeStyle=orthogonalEdgeStyle;rounded=0;orthogonalLoop=1;jettySize=auto;html=1;exitX=0;exitY=0.5;exitDx=0;exitDy=0;entryX=1;entryY=0.5;entryDx=0;entryDy=0;fontFamily=Helvetica;fontSize=12;fontColor=default;sketch=1;curveFitting=1;jiggle=2;curved=1;" edge="1" parent="1" source="JJdDaI7TqnDg2xv0rVeK-58" target="JJdDaI7TqnDg2xv0rVeK-71">
          <mxGeometry relative="1" as="geometry" />
        </mxCell>
        <mxCell id="JJdDaI7TqnDg2xv0rVeK-55" style="edgeStyle=orthogonalEdgeStyle;shape=connector;curved=1;rounded=0;sketch=1;jiggle=2;curveFitting=1;orthogonalLoop=1;jettySize=auto;html=1;exitX=1;exitY=0.5;exitDx=0;exitDy=0;entryX=0;entryY=0.5;entryDx=0;entryDy=0;strokeColor=default;align=center;verticalAlign=middle;fontFamily=Helvetica;fontSize=12;fontColor=default;labelBackgroundColor=default;endArrow=classic;" edge="1" parent="1" source="JJdDaI7TqnDg2xv0rVeK-58" target="JJdDaI7TqnDg2xv0rVeK-67">
          <mxGeometry relative="1" as="geometry" />
        </mxCell>
        <mxCell id="JJdDaI7TqnDg2xv0rVeK-56" style="edgeStyle=orthogonalEdgeStyle;shape=connector;curved=1;rounded=0;sketch=1;jiggle=2;curveFitting=1;orthogonalLoop=1;jettySize=auto;html=1;entryX=0.5;entryY=1;entryDx=0;entryDy=0;strokeColor=default;align=center;verticalAlign=middle;fontFamily=Helvetica;fontSize=12;fontColor=default;labelBackgroundColor=default;endArrow=classic;" edge="1" parent="1" source="JJdDaI7TqnDg2xv0rVeK-58" target="JJdDaI7TqnDg2xv0rVeK-60">
          <mxGeometry relative="1" as="geometry" />
        </mxCell>
        <mxCell id="JJdDaI7TqnDg2xv0rVeK-57" style="edgeStyle=orthogonalEdgeStyle;shape=connector;curved=1;rounded=0;sketch=1;jiggle=2;curveFitting=1;orthogonalLoop=1;jettySize=auto;html=1;exitX=0.5;exitY=1;exitDx=0;exitDy=0;strokeColor=default;align=center;verticalAlign=middle;fontFamily=Helvetica;fontSize=12;fontColor=default;labelBackgroundColor=default;endArrow=classic;" edge="1" parent="1" source="JJdDaI7TqnDg2xv0rVeK-58" target="JJdDaI7TqnDg2xv0rVeK-69">
          <mxGeometry relative="1" as="geometry" />
        </mxCell>
        <mxCell id="JJdDaI7TqnDg2xv0rVeK-58" value="EonVisionGate" style="rounded=1;whiteSpace=wrap;html=1;sketch=1;jiggle=2;curveFitting=1;strokeColor=#b85450;align=center;verticalAlign=middle;fontFamily=Helvetica;fontSize=12;fillColor=#f8cecc;fillStyle=solid;" vertex="1" parent="1">
          <mxGeometry x="570" y="1664" width="171" height="63" as="geometry" />
        </mxCell>
        <mxCell id="JJdDaI7TqnDg2xv0rVeK-59" style="edgeStyle=orthogonalEdgeStyle;shape=connector;curved=1;rounded=0;sketch=1;jiggle=2;curveFitting=1;orthogonalLoop=1;jettySize=auto;html=1;exitX=0.5;exitY=0;exitDx=0;exitDy=0;entryX=0.5;entryY=1;entryDx=0;entryDy=0;strokeColor=default;align=center;verticalAlign=middle;fontFamily=Helvetica;fontSize=12;fontColor=default;labelBackgroundColor=default;endArrow=classic;" edge="1" parent="1" source="JJdDaI7TqnDg2xv0rVeK-60" target="JJdDaI7TqnDg2xv0rVeK-77">
          <mxGeometry relative="1" as="geometry" />
        </mxCell>
        <mxCell id="JJdDaI7TqnDg2xv0rVeK-60" value="AstraVision" style="rounded=1;whiteSpace=wrap;html=1;sketch=1;jiggle=2;curveFitting=1;strokeColor=#d6b656;align=center;verticalAlign=middle;fontFamily=Helvetica;fontSize=12;fillColor=#fff2cc;fillStyle=solid;" vertex="1" parent="1">
          <mxGeometry x="580" y="1519" width="171" height="63" as="geometry" />
        </mxCell>
        <mxCell id="JJdDaI7TqnDg2xv0rVeK-61" style="edgeStyle=orthogonalEdgeStyle;shape=connector;curved=1;rounded=0;sketch=1;jiggle=2;curveFitting=1;orthogonalLoop=1;jettySize=auto;html=1;exitX=0.5;exitY=0;exitDx=0;exitDy=0;entryX=0.5;entryY=1;entryDx=0;entryDy=0;strokeColor=default;align=center;verticalAlign=middle;fontFamily=Helvetica;fontSize=12;fontColor=default;labelBackgroundColor=default;endArrow=classic;" edge="1" parent="1" source="JJdDaI7TqnDg2xv0rVeK-64" target="JJdDaI7TqnDg2xv0rVeK-65">
          <mxGeometry relative="1" as="geometry" />
        </mxCell>
        <mxCell id="JJdDaI7TqnDg2xv0rVeK-62" style="edgeStyle=orthogonalEdgeStyle;shape=connector;curved=1;rounded=0;sketch=1;jiggle=2;curveFitting=1;orthogonalLoop=1;jettySize=auto;html=1;exitX=1;exitY=0.5;exitDx=0;exitDy=0;entryX=0;entryY=0.5;entryDx=0;entryDy=0;strokeColor=default;align=center;verticalAlign=middle;fontFamily=Helvetica;fontSize=12;fontColor=default;labelBackgroundColor=default;endArrow=classic;" edge="1" parent="1" source="JJdDaI7TqnDg2xv0rVeK-64" target="JJdDaI7TqnDg2xv0rVeK-72">
          <mxGeometry relative="1" as="geometry" />
        </mxCell>
        <mxCell id="JJdDaI7TqnDg2xv0rVeK-63" style="edgeStyle=orthogonalEdgeStyle;shape=connector;curved=1;rounded=0;sketch=1;jiggle=2;curveFitting=1;orthogonalLoop=1;jettySize=auto;html=1;exitX=0.5;exitY=1;exitDx=0;exitDy=0;strokeColor=default;align=center;verticalAlign=middle;fontFamily=Helvetica;fontSize=12;fontColor=default;labelBackgroundColor=default;endArrow=classic;" edge="1" parent="1" source="JJdDaI7TqnDg2xv0rVeK-64" target="JJdDaI7TqnDg2xv0rVeK-73">
          <mxGeometry relative="1" as="geometry" />
        </mxCell>
        <mxCell id="JJdDaI7TqnDg2xv0rVeK-64" value="PortalGate" style="rounded=1;whiteSpace=wrap;html=1;sketch=1;jiggle=2;curveFitting=1;strokeColor=#d79b00;align=center;verticalAlign=middle;fontFamily=Helvetica;fontSize=12;fillColor=#ffe6cc;fillStyle=solid;" vertex="1" parent="1">
          <mxGeometry x="1063" y="1669" width="171" height="63" as="geometry" />
        </mxCell>
        <mxCell id="JJdDaI7TqnDg2xv0rVeK-65" value="AstraPortal" style="rounded=1;whiteSpace=wrap;html=1;sketch=1;jiggle=2;curveFitting=1;strokeColor=#82b366;align=center;verticalAlign=middle;fontFamily=Helvetica;fontSize=12;fillColor=#d5e8d4;fillStyle=solid;" vertex="1" parent="1">
          <mxGeometry x="1070" y="1553" width="171" height="63" as="geometry" />
        </mxCell>
        <mxCell id="JJdDaI7TqnDg2xv0rVeK-66" style="edgeStyle=orthogonalEdgeStyle;shape=connector;curved=1;rounded=0;sketch=1;jiggle=2;curveFitting=1;orthogonalLoop=1;jettySize=auto;html=1;exitX=1;exitY=0.5;exitDx=0;exitDy=0;entryX=0;entryY=0.5;entryDx=0;entryDy=0;strokeColor=default;align=center;verticalAlign=middle;fontFamily=Helvetica;fontSize=12;fontColor=default;labelBackgroundColor=default;endArrow=classic;" edge="1" parent="1" source="JJdDaI7TqnDg2xv0rVeK-67" target="JJdDaI7TqnDg2xv0rVeK-64">
          <mxGeometry relative="1" as="geometry" />
        </mxCell>
        <mxCell id="JJdDaI7TqnDg2xv0rVeK-67" value="AstraVision" style="rounded=1;whiteSpace=wrap;html=1;sketch=1;jiggle=2;curveFitting=1;strokeColor=#d6b656;align=center;verticalAlign=middle;fontFamily=Helvetica;fontSize=12;fillColor=#fff2cc;fillStyle=solid;" vertex="1" parent="1">
          <mxGeometry x="827" y="1667" width="171" height="63" as="geometry" />
        </mxCell>
        <mxCell id="JJdDaI7TqnDg2xv0rVeK-68" style="edgeStyle=orthogonalEdgeStyle;shape=connector;curved=1;rounded=0;sketch=1;jiggle=2;curveFitting=1;orthogonalLoop=1;jettySize=auto;html=1;exitX=0.5;exitY=1;exitDx=0;exitDy=0;entryX=0.5;entryY=0;entryDx=0;entryDy=0;strokeColor=default;align=center;verticalAlign=middle;fontFamily=Helvetica;fontSize=12;fontColor=default;labelBackgroundColor=default;endArrow=classic;" edge="1" parent="1" source="JJdDaI7TqnDg2xv0rVeK-69" target="JJdDaI7TqnDg2xv0rVeK-84">
          <mxGeometry relative="1" as="geometry" />
        </mxCell>
        <mxCell id="JJdDaI7TqnDg2xv0rVeK-69" value="AstraVision" style="rounded=1;whiteSpace=wrap;html=1;sketch=1;jiggle=2;curveFitting=1;strokeColor=#d6b656;align=center;verticalAlign=middle;fontFamily=Helvetica;fontSize=12;fillColor=#fff2cc;fillStyle=solid;" vertex="1" parent="1">
          <mxGeometry x="566" y="1785" width="171" height="63" as="geometry" />
        </mxCell>
        <mxCell id="JJdDaI7TqnDg2xv0rVeK-70" style="edgeStyle=orthogonalEdgeStyle;shape=connector;curved=1;rounded=0;sketch=1;jiggle=2;curveFitting=1;orthogonalLoop=1;jettySize=auto;html=1;exitX=0;exitY=0.5;exitDx=0;exitDy=0;entryX=1;entryY=0.5;entryDx=0;entryDy=0;strokeColor=default;align=center;verticalAlign=middle;fontFamily=Helvetica;fontSize=12;fontColor=default;labelBackgroundColor=default;endArrow=classic;" edge="1" parent="1" source="JJdDaI7TqnDg2xv0rVeK-71" target="JJdDaI7TqnDg2xv0rVeK-91">
          <mxGeometry relative="1" as="geometry" />
        </mxCell>
        <mxCell id="JJdDaI7TqnDg2xv0rVeK-71" value="AstraVision" style="rounded=1;whiteSpace=wrap;html=1;sketch=1;jiggle=2;curveFitting=1;strokeColor=#d6b656;align=center;verticalAlign=middle;fontFamily=Helvetica;fontSize=12;fillColor=#fff2cc;fillStyle=solid;" vertex="1" parent="1">
          <mxGeometry x="347" y="1663" width="171" height="63" as="geometry" />
        </mxCell>
        <mxCell id="JJdDaI7TqnDg2xv0rVeK-72" value="AstraPortal" style="rounded=1;whiteSpace=wrap;html=1;sketch=1;jiggle=2;curveFitting=1;strokeColor=#82b366;align=center;verticalAlign=middle;fontFamily=Helvetica;fontSize=12;fillColor=#d5e8d4;fillStyle=solid;" vertex="1" parent="1">
          <mxGeometry x="1280" y="1668" width="171" height="63" as="geometry" />
        </mxCell>
        <mxCell id="JJdDaI7TqnDg2xv0rVeK-73" value="AstraPortal" style="rounded=1;whiteSpace=wrap;html=1;sketch=1;jiggle=2;curveFitting=1;strokeColor=#82b366;align=center;verticalAlign=middle;fontFamily=Helvetica;fontSize=12;fillColor=#d5e8d4;fillStyle=solid;" vertex="1" parent="1">
          <mxGeometry x="1066" y="1788" width="171" height="63" as="geometry" />
        </mxCell>
        <mxCell id="JJdDaI7TqnDg2xv0rVeK-74" style="edgeStyle=orthogonalEdgeStyle;shape=connector;curved=1;rounded=0;sketch=1;jiggle=2;curveFitting=1;orthogonalLoop=1;jettySize=auto;html=1;exitX=0;exitY=0.5;exitDx=0;exitDy=0;strokeColor=default;align=center;verticalAlign=middle;fontFamily=Helvetica;fontSize=12;fontColor=default;labelBackgroundColor=default;endArrow=classic;" edge="1" parent="1" source="JJdDaI7TqnDg2xv0rVeK-77" target="JJdDaI7TqnDg2xv0rVeK-80">
          <mxGeometry relative="1" as="geometry" />
        </mxCell>
        <mxCell id="JJdDaI7TqnDg2xv0rVeK-75" style="edgeStyle=orthogonalEdgeStyle;shape=connector;curved=1;rounded=0;sketch=1;jiggle=2;curveFitting=1;orthogonalLoop=1;jettySize=auto;html=1;exitX=0.5;exitY=0;exitDx=0;exitDy=0;entryX=0.5;entryY=1;entryDx=0;entryDy=0;strokeColor=default;align=center;verticalAlign=middle;fontFamily=Helvetica;fontSize=12;fontColor=default;labelBackgroundColor=default;endArrow=classic;" edge="1" parent="1" source="JJdDaI7TqnDg2xv0rVeK-77" target="JJdDaI7TqnDg2xv0rVeK-78">
          <mxGeometry relative="1" as="geometry" />
        </mxCell>
        <mxCell id="JJdDaI7TqnDg2xv0rVeK-76" style="edgeStyle=orthogonalEdgeStyle;shape=connector;curved=1;rounded=0;sketch=1;jiggle=2;curveFitting=1;orthogonalLoop=1;jettySize=auto;html=1;exitX=1;exitY=0.5;exitDx=0;exitDy=0;entryX=0;entryY=0.5;entryDx=0;entryDy=0;strokeColor=default;align=center;verticalAlign=middle;fontFamily=Helvetica;fontSize=12;fontColor=default;labelBackgroundColor=default;endArrow=classic;" edge="1" parent="1" source="JJdDaI7TqnDg2xv0rVeK-77" target="JJdDaI7TqnDg2xv0rVeK-79">
          <mxGeometry relative="1" as="geometry" />
        </mxCell>
        <mxCell id="JJdDaI7TqnDg2xv0rVeK-77" value="PortalGate" style="rounded=1;whiteSpace=wrap;html=1;sketch=1;jiggle=2;curveFitting=1;strokeColor=#d79b00;align=center;verticalAlign=middle;fontFamily=Helvetica;fontSize=12;fillColor=#ffe6cc;fillStyle=solid;" vertex="1" parent="1">
          <mxGeometry x="586" y="1401" width="171" height="63" as="geometry" />
        </mxCell>
        <mxCell id="JJdDaI7TqnDg2xv0rVeK-78" value="AstraPortal" style="rounded=1;whiteSpace=wrap;html=1;sketch=1;jiggle=2;curveFitting=1;strokeColor=#82b366;align=center;verticalAlign=middle;fontFamily=Helvetica;fontSize=12;fillColor=#d5e8d4;fillStyle=solid;" vertex="1" parent="1">
          <mxGeometry x="593" y="1285" width="171" height="63" as="geometry" />
        </mxCell>
        <mxCell id="JJdDaI7TqnDg2xv0rVeK-79" value="AstraPortal" style="rounded=1;whiteSpace=wrap;html=1;sketch=1;jiggle=2;curveFitting=1;strokeColor=#82b366;align=center;verticalAlign=middle;fontFamily=Helvetica;fontSize=12;fillColor=#d5e8d4;fillStyle=solid;" vertex="1" parent="1">
          <mxGeometry x="803" y="1400" width="171" height="63" as="geometry" />
        </mxCell>
        <mxCell id="JJdDaI7TqnDg2xv0rVeK-80" value="AstraPortal" style="rounded=1;whiteSpace=wrap;html=1;sketch=1;jiggle=2;curveFitting=1;strokeColor=#82b366;align=center;verticalAlign=middle;fontFamily=Helvetica;fontSize=12;fillColor=#d5e8d4;fillStyle=solid;" vertex="1" parent="1">
          <mxGeometry x="367" y="1403" width="171" height="63" as="geometry" />
        </mxCell>
        <mxCell id="JJdDaI7TqnDg2xv0rVeK-81" style="edgeStyle=orthogonalEdgeStyle;shape=connector;curved=1;rounded=0;sketch=1;jiggle=2;curveFitting=1;orthogonalLoop=1;jettySize=auto;html=1;exitX=0;exitY=0.5;exitDx=0;exitDy=0;entryX=1;entryY=0.5;entryDx=0;entryDy=0;strokeColor=default;align=center;verticalAlign=middle;fontFamily=Helvetica;fontSize=12;fontColor=default;labelBackgroundColor=default;endArrow=classic;" edge="1" parent="1" source="JJdDaI7TqnDg2xv0rVeK-84" target="JJdDaI7TqnDg2xv0rVeK-87">
          <mxGeometry relative="1" as="geometry" />
        </mxCell>
        <mxCell id="JJdDaI7TqnDg2xv0rVeK-82" style="edgeStyle=orthogonalEdgeStyle;shape=connector;curved=1;rounded=0;sketch=1;jiggle=2;curveFitting=1;orthogonalLoop=1;jettySize=auto;html=1;exitX=0.5;exitY=1;exitDx=0;exitDy=0;strokeColor=default;align=center;verticalAlign=middle;fontFamily=Helvetica;fontSize=12;fontColor=default;labelBackgroundColor=default;endArrow=classic;" edge="1" parent="1" source="JJdDaI7TqnDg2xv0rVeK-84" target="JJdDaI7TqnDg2xv0rVeK-85">
          <mxGeometry relative="1" as="geometry" />
        </mxCell>
        <mxCell id="JJdDaI7TqnDg2xv0rVeK-83" style="edgeStyle=orthogonalEdgeStyle;shape=connector;curved=1;rounded=0;sketch=1;jiggle=2;curveFitting=1;orthogonalLoop=1;jettySize=auto;html=1;exitX=1;exitY=0.5;exitDx=0;exitDy=0;entryX=0;entryY=0.5;entryDx=0;entryDy=0;strokeColor=default;align=center;verticalAlign=middle;fontFamily=Helvetica;fontSize=12;fontColor=default;labelBackgroundColor=default;endArrow=classic;" edge="1" parent="1" source="JJdDaI7TqnDg2xv0rVeK-84" target="JJdDaI7TqnDg2xv0rVeK-86">
          <mxGeometry relative="1" as="geometry" />
        </mxCell>
        <mxCell id="JJdDaI7TqnDg2xv0rVeK-84" value="PortalGate" style="rounded=1;whiteSpace=wrap;html=1;sketch=1;jiggle=2;curveFitting=1;strokeColor=#d79b00;align=center;verticalAlign=middle;fontFamily=Helvetica;fontSize=12;fillColor=#ffe6cc;fillStyle=solid;" vertex="1" parent="1">
          <mxGeometry x="554" y="1913" width="171" height="63" as="geometry" />
        </mxCell>
        <mxCell id="JJdDaI7TqnDg2xv0rVeK-85" value="AstraPortal" style="rounded=1;whiteSpace=wrap;html=1;sketch=1;jiggle=2;curveFitting=1;strokeColor=#82b366;align=center;verticalAlign=middle;fontFamily=Helvetica;fontSize=12;fillColor=#d5e8d4;fillStyle=solid;" vertex="1" parent="1">
          <mxGeometry x="551" y="2040" width="171" height="63" as="geometry" />
        </mxCell>
        <mxCell id="JJdDaI7TqnDg2xv0rVeK-86" value="AstraPortal" style="rounded=1;whiteSpace=wrap;html=1;sketch=1;jiggle=2;curveFitting=1;strokeColor=#82b366;align=center;verticalAlign=middle;fontFamily=Helvetica;fontSize=12;fillColor=#d5e8d4;fillStyle=solid;" vertex="1" parent="1">
          <mxGeometry x="771" y="1912" width="171" height="63" as="geometry" />
        </mxCell>
        <mxCell id="JJdDaI7TqnDg2xv0rVeK-87" value="AstraPortal" style="rounded=1;whiteSpace=wrap;html=1;sketch=1;jiggle=2;curveFitting=1;strokeColor=#82b366;align=center;verticalAlign=middle;fontFamily=Helvetica;fontSize=12;fillColor=#d5e8d4;fillStyle=solid;" vertex="1" parent="1">
          <mxGeometry x="335" y="1915" width="171" height="63" as="geometry" />
        </mxCell>
        <mxCell id="JJdDaI7TqnDg2xv0rVeK-88" style="edgeStyle=orthogonalEdgeStyle;shape=connector;curved=1;rounded=0;sketch=1;jiggle=2;curveFitting=1;orthogonalLoop=1;jettySize=auto;html=1;exitX=0;exitY=0.5;exitDx=0;exitDy=0;entryX=1;entryY=0.5;entryDx=0;entryDy=0;strokeColor=default;align=center;verticalAlign=middle;fontFamily=Helvetica;fontSize=12;fontColor=default;labelBackgroundColor=default;endArrow=classic;" edge="1" parent="1" source="JJdDaI7TqnDg2xv0rVeK-91" target="JJdDaI7TqnDg2xv0rVeK-93">
          <mxGeometry relative="1" as="geometry" />
        </mxCell>
        <mxCell id="JJdDaI7TqnDg2xv0rVeK-89" style="edgeStyle=orthogonalEdgeStyle;shape=connector;curved=1;rounded=0;sketch=1;jiggle=2;curveFitting=1;orthogonalLoop=1;jettySize=auto;html=1;exitX=0.5;exitY=0;exitDx=0;exitDy=0;entryX=0.5;entryY=1;entryDx=0;entryDy=0;strokeColor=default;align=center;verticalAlign=middle;fontFamily=Helvetica;fontSize=12;fontColor=default;labelBackgroundColor=default;endArrow=classic;" edge="1" parent="1" source="JJdDaI7TqnDg2xv0rVeK-91" target="JJdDaI7TqnDg2xv0rVeK-92">
          <mxGeometry relative="1" as="geometry" />
        </mxCell>
        <mxCell id="JJdDaI7TqnDg2xv0rVeK-90" style="edgeStyle=orthogonalEdgeStyle;shape=connector;curved=1;rounded=0;sketch=1;jiggle=2;curveFitting=1;orthogonalLoop=1;jettySize=auto;html=1;exitX=0.5;exitY=1;exitDx=0;exitDy=0;entryX=0.5;entryY=0;entryDx=0;entryDy=0;strokeColor=default;align=center;verticalAlign=middle;fontFamily=Helvetica;fontSize=12;fontColor=default;labelBackgroundColor=default;endArrow=classic;" edge="1" parent="1" source="JJdDaI7TqnDg2xv0rVeK-91" target="JJdDaI7TqnDg2xv0rVeK-94">
          <mxGeometry relative="1" as="geometry" />
        </mxCell>
        <mxCell id="JJdDaI7TqnDg2xv0rVeK-91" value="PortalGate" style="rounded=1;whiteSpace=wrap;html=1;sketch=1;jiggle=2;curveFitting=1;strokeColor=#d79b00;align=center;verticalAlign=middle;fontFamily=Helvetica;fontSize=12;fillColor=#ffe6cc;fillStyle=solid;" vertex="1" parent="1">
          <mxGeometry x="104" y="1664" width="171" height="63" as="geometry" />
        </mxCell>
        <mxCell id="JJdDaI7TqnDg2xv0rVeK-92" value="AstraPortal" style="rounded=1;whiteSpace=wrap;html=1;sketch=1;jiggle=2;curveFitting=1;strokeColor=#82b366;align=center;verticalAlign=middle;fontFamily=Helvetica;fontSize=12;fillColor=#d5e8d4;fillStyle=solid;" vertex="1" parent="1">
          <mxGeometry x="111" y="1548" width="171" height="63" as="geometry" />
        </mxCell>
        <mxCell id="JJdDaI7TqnDg2xv0rVeK-93" value="AstraPortal" style="rounded=1;whiteSpace=wrap;html=1;sketch=1;jiggle=2;curveFitting=1;strokeColor=#82b366;align=center;verticalAlign=middle;fontFamily=Helvetica;fontSize=12;fillColor=#d5e8d4;fillStyle=solid;" vertex="1" parent="1">
          <mxGeometry x="-112" y="1666" width="171" height="63" as="geometry" />
        </mxCell>
        <mxCell id="JJdDaI7TqnDg2xv0rVeK-94" value="AstraPortal" style="rounded=1;whiteSpace=wrap;html=1;sketch=1;jiggle=2;curveFitting=1;strokeColor=#82b366;align=center;verticalAlign=middle;fontFamily=Helvetica;fontSize=12;fillColor=#d5e8d4;fillStyle=solid;" vertex="1" parent="1">
          <mxGeometry x="107" y="1783" width="171" height="63" as="geometry" />
        </mxCell>
      </root>
    </mxGraphModel>
  </diagram>
</mxfile>
